<svg width="512" height="512" viewBox="0 0 512 512" fill="none" xmlns="http://www.w3.org/2000/svg">
<g clip-path="url(#clip0_50_192)">
<path d="M408.525 0.0319908H103.411C89.8294 0.0265246 76.3798 2.6976 63.8309 7.89256C51.282 13.0875 39.8799 20.7045 30.2762 30.3082C20.6725 39.9119 13.0555 51.314 7.86057 63.8629C2.66562 76.4118 -0.00545785 89.8614 8.3728e-06 103.443V408.621C0.00118328 422.198 2.67726 435.641 7.87535 448.184C13.0734 460.726 20.6917 472.121 30.2949 481.718C39.8981 491.316 51.2981 498.927 63.8436 504.117C76.3891 509.308 89.8343 511.975 103.411 511.968H408.589C436.015 511.968 462.318 501.073 481.712 481.68C501.105 462.286 512 435.983 512 408.557V103.443C511.986 76.01 501.077 49.7056 481.673 30.3135C462.269 10.9214 435.958 0.0292724 408.525 0.0319908Z" fill="url(#paint0_linear_50_192)"/>
<path d="M253.792 117.649L264.159 99.7314C265.688 97.0759 267.726 94.7476 270.155 92.8795C272.584 91.0114 275.358 89.6401 278.317 88.8438C281.276 88.0476 284.363 87.842 287.402 88.2388C290.441 88.6356 293.372 89.627 296.027 91.1564C298.683 92.6859 301.011 94.7234 302.879 97.1527C304.747 99.5819 306.118 102.355 306.915 105.315C307.711 108.274 307.916 111.361 307.52 114.399C307.123 117.438 306.131 120.369 304.602 123.024L204.71 295.931H276.957C300.378 295.931 313.497 323.447 303.322 342.517H91.5086C85.3309 342.517 79.4062 340.063 75.0379 335.695C70.6696 331.326 68.2155 325.402 68.2155 319.224C68.2155 313.046 70.6696 307.122 75.0379 302.753C79.4062 298.385 85.3309 295.931 91.5086 295.931H150.893L226.916 164.171L203.175 122.96C200.086 117.597 199.254 111.227 200.862 105.251C202.47 99.2741 206.386 94.1813 211.75 91.0925C217.113 88.0036 223.483 87.1717 229.459 88.7798C235.436 90.3879 240.529 94.3043 243.618 99.6674L253.792 117.649ZM163.948 366.514L141.55 405.357C138.461 410.72 133.369 414.637 127.392 416.245C121.416 417.853 115.045 417.021 109.682 413.932C104.319 410.843 100.403 405.75 98.7948 399.774C97.1866 393.798 98.0185 387.427 101.107 382.064L117.745 353.268C136.559 347.444 151.853 351.924 163.948 366.514ZM356.819 296.059H417.42C420.479 296.059 423.508 296.661 426.334 297.832C429.16 299.003 431.728 300.718 433.891 302.881C436.054 305.044 437.769 307.612 438.94 310.438C440.11 313.264 440.713 316.293 440.713 319.352C440.713 322.411 440.11 325.44 438.94 328.266C437.769 331.092 436.054 333.66 433.891 335.823C431.728 337.986 429.16 339.701 426.334 340.872C423.508 342.043 420.479 342.645 417.42 342.645H383.76L406.477 382.064C409.566 387.427 410.398 393.798 408.79 399.774C407.182 405.75 403.265 410.843 397.902 413.932C392.539 417.021 386.169 417.853 380.192 416.245C374.216 414.637 369.123 410.72 366.034 405.357C327.767 338.997 299.077 289.297 279.965 256.256C260.447 222.596 274.398 188.808 288.156 177.354C303.45 203.59 326.338 243.159 356.819 296.059Z" fill="white"/>
</g>
<defs>
<linearGradient id="paint0_linear_50_192" x1="256" y1="0.0319908" x2="256" y2="511.968" gradientUnits="userSpaceOnUse">
<stop stop-color="#18BFFB"/>
<stop offset="1" stop-color="#2072F3"/>
</linearGradient>
<clipPath id="clip0_50_192">
<rect width="512" height="511.936" fill="white" transform="translate(0 0.0319824)"/>
</clipPath>
</defs>
</svg>
