<svg width="24" height="24" viewBox="0 0 24 24" fill="none" xmlns="http://www.w3.org/2000/svg">
<g clip-path="url(#clip0_29_1256)">
<path d="M9.98986 5.06307C10.2839 4.8058 10.3138 4.35866 10.0565 4.06459C9.79906 3.77053 9.3521 3.74068 9.05803 3.99794L8.93627 4.10451C8.6422 4.36177 8.61235 4.80892 8.86962 5.10298C9.00951 5.26283 9.20543 5.34468 9.40245 5.34468C9.5678 5.34468 9.73387 5.287 9.86809 5.16963L9.98986 5.06307Z" fill="black"/>
<path d="M5.52648 6.90015L5.40471 7.00671C5.11064 7.26416 5.0808 7.71112 5.33806 8.00519C5.47795 8.16522 5.67388 8.24689 5.8709 8.24689C6.03624 8.24689 6.20232 8.18939 6.33653 8.07202L6.4583 7.96545C6.75237 7.70801 6.78221 7.26105 6.52495 6.96698C6.26769 6.67273 5.82054 6.64288 5.52648 6.90015Z" fill="black"/>
<path d="M10.1334 6.9611L10.0117 7.06766C9.71778 7.32511 9.68793 7.77207 9.94519 8.06614C10.0851 8.22617 10.281 8.30784 10.478 8.30784C10.6434 8.30784 10.8095 8.25016 10.9437 8.1326L11.0654 8.02604C11.3595 7.76877 11.3893 7.32163 11.1319 7.02756C10.8746 6.7335 10.4277 6.70383 10.1334 6.9611Z" fill="black"/>
<path d="M14.7902 4.54868L14.8021 4.38736C14.8306 3.99753 14.5378 3.65842 14.1482 3.62985C13.7585 3.60129 13.4193 3.89408 13.3907 4.28372L13.3788 4.44504C13.3502 4.83487 13.643 5.17398 14.0327 5.20255C14.0502 5.20383 14.0678 5.20456 14.0852 5.20456C14.4525 5.20456 14.7629 4.92075 14.7902 4.54868Z" fill="black"/>
<path d="M18.9174 5.77845C18.6779 5.46955 18.2335 5.41334 17.9246 5.65266C17.6157 5.89216 17.5595 6.33656 17.7988 6.64546L17.898 6.77345C18.0375 6.95326 18.2465 7.04756 18.4578 7.04756C18.6092 7.04756 18.7617 6.99903 18.8908 6.89906C19.1995 6.65974 19.2559 6.21516 19.0164 5.90626L18.9174 5.77845Z" fill="black"/>
<path d="M15.2554 6.82858C14.866 6.7991 14.5265 7.09262 14.4977 7.48226L14.4858 7.64358C14.4571 8.03341 14.7499 8.37252 15.1395 8.40127C15.1573 8.40255 15.1749 8.40329 15.1923 8.40329C15.5594 8.40329 15.8697 8.11965 15.8972 7.74758L15.9091 7.58627C15.9379 7.19644 15.6451 6.85733 15.2554 6.82858Z" fill="black"/>
<path d="M22.4698 9.86682V8.80536C22.4698 4.64795 19.0875 1.26562 14.9301 1.26562H9.46454C5.30713 1.26562 1.9248 4.64795 1.9248 8.80536V9.73737C0.822327 10.0014 0 10.9946 0 12.1767V12.3292C0 13.5114 0.822327 14.5045 1.9248 14.7686V16.0045C1.9248 16.1611 1.94861 16.3138 1.99237 16.4586V16.5837C1.99237 19.9633 4.7417 22.7126 8.12128 22.7126H16.3409C19.7205 22.7126 22.4698 19.9633 22.4698 16.5837V14.6391C23.3683 14.257 24 13.3654 24 12.3292V12.1767C24 11.1403 23.3683 10.249 22.4698 9.86682ZM3.34003 8.80536C3.34003 5.42816 6.08734 2.68085 9.46454 2.68085H14.9301C18.3073 2.68085 21.0546 5.42816 21.0546 8.80536V9.66797H3.34003V8.80536ZM21.0546 16.5837C21.0546 16.8045 20.9055 16.9118 20.8414 16.9477C20.7768 16.9838 20.606 17.0554 20.4157 16.9387C20.3527 16.9001 20.2908 16.8607 20.2291 16.8214C19.7254 16.5009 19.0986 16.1019 17.9361 16.1019C16.7734 16.1019 16.1466 16.5007 15.6431 16.8214C15.2058 17.0997 14.8603 17.3196 14.1099 17.3196C13.3596 17.3196 13.0142 17.0999 12.577 16.8214C12.0732 16.5009 11.4467 16.1019 10.2839 16.1019C9.1214 16.1019 8.49463 16.5009 7.99109 16.8214C7.55383 17.0997 7.2085 17.3196 6.45813 17.3196C5.70795 17.3196 5.36243 17.0999 4.92535 16.8214C4.5553 16.5859 4.13599 16.3191 3.49731 16.1856C3.43048 16.1717 3.37866 16.1288 3.35468 16.0734C3.35321 16.0697 3.35193 16.0659 3.35028 16.0622C3.34387 16.0439 3.34003 16.0247 3.34003 16.0045V14.838H21.0546V16.5837ZM16.3409 21.2974H8.12109C5.8949 21.2974 4.02429 19.7459 3.53339 17.6675C3.75604 17.7548 3.94464 17.8748 4.16528 18.0152C4.66882 18.3358 5.29559 18.7348 6.45813 18.7348C7.62067 18.7348 8.24744 18.3358 8.75098 18.0152C9.18823 17.7369 9.53357 17.517 10.2839 17.517C11.0343 17.517 11.3796 17.7369 11.8169 18.0152C12.3206 18.3358 12.9472 18.7348 14.1099 18.7348C15.2725 18.7348 15.8992 18.3358 16.403 18.0152C16.8402 17.7369 17.1855 17.517 17.9359 17.517C18.6863 17.517 19.0318 17.7369 19.4691 18.0152C19.5375 18.0588 19.6058 18.1024 19.6756 18.145C19.9882 18.3367 20.3361 18.4276 20.6829 18.4182C19.966 20.1086 18.2897 21.2974 16.3409 21.2974ZM22.5848 12.3292C22.5848 12.9322 22.0942 13.4227 21.4913 13.4227H2.50873C1.90576 13.4227 1.41522 12.9322 1.41522 12.3292V12.1767C1.41522 11.5737 1.90576 11.0832 2.50873 11.0832H21.4913C22.0942 11.0832 22.5848 11.5737 22.5848 12.1767V12.3292Z" fill="black"/>
</g>
<defs>
<clipPath id="clip0_29_1256">
<rect width="24" height="24" fill="white"/>
</clipPath>
</defs>
</svg>
