<svg width="16" height="16" viewBox="0 0 16 16" fill="none" xmlns="http://www.w3.org/2000/svg">
<path d="M13.8934 3.07339C13.5529 2.73273 13.1486 2.46249 12.7036 2.27811C12.2586 2.09374 11.7817 1.99884 11.3 1.99884C10.8184 1.99884 10.3414 2.09374 9.89646 2.27811C9.45149 2.46249 9.0472 2.73273 8.7067 3.07339L8.00003 3.78006L7.29336 3.07339C6.60557 2.3856 5.67272 1.9992 4.70003 1.9992C3.72734 1.9992 2.79449 2.3856 2.1067 3.07339C1.4189 3.76119 1.0325 4.69404 1.0325 5.66672C1.0325 6.63941 1.4189 7.57226 2.1067 8.26006L2.81336 8.96672L8.00003 14.1534L13.1867 8.96672L13.8934 8.26006C14.234 7.91955 14.5043 7.51527 14.6886 7.07029C14.873 6.62532 14.9679 6.14838 14.9679 5.66672C14.9679 5.18507 14.873 4.70813 14.6886 4.26315C14.5043 3.81818 14.234 3.41389 13.8934 3.07339Z" fill="#FF0000" stroke="#FF0000" stroke-width="1.33333" stroke-linecap="round" stroke-linejoin="round"/>
</svg>
