<svg width="512" height="513" viewBox="0 0 512 513" fill="none" xmlns="http://www.w3.org/2000/svg">
<g clip-path="url(#clip0_49_182)">
<path d="M252.16 246.26L55.0402 452.34C61.4402 474.1 81.9202 490.74 106.24 490.74C116.48 490.74 125.44 488.18 133.12 483.06L355.84 356.34L252.16 246.26Z" fill="#EA4335"/>
<path d="M451.84 210.42L355.84 155.38L248.32 250.1L357.12 356.34L453.12 302.58C469.76 293.62 481.28 275.7 481.28 256.5C480 237.3 468.48 219.38 451.84 210.42Z" fill="#FBBC04"/>
<path d="M55.0401 60.6594C53.7601 64.4994 53.7601 69.6194 53.7601 74.7394V439.539C53.7601 444.659 53.7601 448.499 55.0401 453.619L259.84 252.659L55.0401 60.6594Z" fill="#4285F4"/>
<path d="M253.44 256.499L355.84 155.379L134.4 29.9393C126.72 24.8193 116.48 22.2593 106.24 22.2593C81.9202 22.2593 60.1602 38.8993 55.0402 60.6593L253.44 256.499Z" fill="#34A853"/>
</g>
<defs>
<clipPath id="clip0_49_182">
<rect width="512" height="512" fill="white" transform="translate(0 0.5)"/>
</clipPath>
</defs>
</svg>
